<?xml version="1.0" encoding="utf-8"?>
<!-- Generator: Adobe Illustrator 16.0.0, SVG Export Plug-In . SVG Version: 6.00 Build 0)  -->
<!DOCTYPE svg PUBLIC "-//W3C//DTD SVG 1.1//EN" "http://www.w3.org/Graphics/SVG/1.1/DTD/svg11.dtd">
<svg version="1.1" xmlns="http://www.w3.org/2000/svg" xmlns:xlink="http://www.w3.org/1999/xlink" x="0px" y="0px"
	 width="392.911px" height="491.062px" viewBox="0 0 392.911 491.062" enable-background="new 0 0 392.911 491.062"
	 xml:space="preserve">
<g id="Browser">
	<path fill="#18852B" d="M227.27,333.185c0.05-0.007,0.099-0.016,0.148-0.021c0.646-0.086,1.283-0.19,1.915-0.308
		c0.119-0.022,0.239-0.043,0.358-0.066c0.641-0.127,1.273-0.271,1.898-0.432c0.129-0.033,0.257-0.068,0.385-0.103
		c0.639-0.172,1.271-0.355,1.893-0.562c0.027-0.01,0.054-0.02,0.08-0.029c0.605-0.203,1.199-0.428,1.787-0.664
		c0.113-0.046,0.229-0.09,0.342-0.137c0.583-0.243,1.156-0.502,1.722-0.777c0.113-0.055,0.225-0.112,0.337-0.168
		c0.582-0.293,1.158-0.597,1.722-0.924c2.819-1.639,5.638-3.277,8.458-4.915c-0.564,0.328-1.142,0.632-1.726,0.925
		c-0.11,0.056-0.22,0.111-0.33,0.166c-0.567,0.276-1.144,0.536-1.729,0.779c-0.11,0.046-0.222,0.089-0.333,0.134
		c-0.593,0.239-1.192,0.465-1.803,0.67c-0.022,0.008-0.044,0.017-0.066,0.024c-0.624,0.207-1.259,0.393-1.9,0.564
		c-0.126,0.034-0.251,0.068-0.377,0.101c-0.627,0.161-1.262,0.306-1.904,0.433c-0.117,0.023-0.235,0.044-0.353,0.065
		c-0.634,0.118-1.274,0.224-1.924,0.309c-0.048,0.007-0.094,0.015-0.142,0.021c-0.676,0.087-1.361,0.149-2.053,0.2
		c-0.14,0.01-0.279,0.021-0.42,0.029c-0.681,0.042-1.368,0.067-2.062,0.074c-0.108,0.002-0.218-0.001-0.327,0
		c-0.812,0.001-1.632-0.017-2.462-0.062c-0.05-0.003-0.101-0.008-0.151-0.011c-0.848-0.051-1.704-0.126-2.57-0.227
		c-0.042-0.005-0.084-0.008-0.126-0.014c-0.859-0.103-1.729-0.234-2.604-0.387c-0.102-0.018-0.203-0.033-0.306-0.052
		c-0.847-0.153-1.702-0.332-2.564-0.532c-0.141-0.033-0.281-0.064-0.423-0.099c-0.726-0.175-1.456-0.363-2.191-0.571
		c-0.107-0.03-0.215-0.064-0.322-0.095c-0.666-0.192-1.337-0.4-2.011-0.62c-0.146-0.048-0.294-0.095-0.441-0.144
		c-0.74-0.248-1.485-0.513-2.235-0.795c-0.155-0.058-0.312-0.12-0.468-0.18c-0.66-0.254-1.325-0.521-1.992-0.801
		c-0.145-0.061-0.289-0.118-0.434-0.181c-0.645-0.275-1.293-0.562-1.943-0.863c-0.156-0.072-0.314-0.149-0.471-0.224
		c-0.511-0.239-1.022-0.485-1.535-0.74c-0.224-0.111-0.448-0.225-0.672-0.339c-0.474-0.24-0.948-0.487-1.424-0.741
		c-0.21-0.111-0.419-0.221-0.629-0.335c-0.673-0.365-1.347-0.739-2.024-1.131c-0.922-0.532-1.837-1.098-2.75-1.668
		c-0.325-0.202-0.651-0.4-0.975-0.608c-1.018-0.651-2.03-1.321-3.036-2.018c-0.021-0.015-0.042-0.028-0.062-0.043
		c-1.032-0.717-2.056-1.462-3.073-2.224c-0.297-0.223-0.591-0.453-0.886-0.679c-0.682-0.521-1.359-1.052-2.033-1.592
		c-0.56-0.448-1.114-0.908-1.669-1.37c-0.538-0.448-1.077-0.897-1.61-1.357c-0.552-0.477-1.099-0.965-1.645-1.453
		c-0.525-0.471-1.052-0.94-1.572-1.422c-0.543-0.503-1.08-1.018-1.617-1.533c-0.513-0.49-1.025-0.979-1.531-1.48
		c-0.532-0.527-1.058-1.066-1.584-1.604c-0.522-0.535-1.047-1.066-1.562-1.612c-0.308-0.325-0.612-0.656-0.918-0.986
		c-0.623-0.672-1.242-1.351-1.855-2.038c-0.314-0.353-0.628-0.706-0.939-1.062c-0.628-0.717-1.248-1.443-1.863-2.175
		c-0.267-0.317-0.536-0.632-0.801-0.952c-0.834-1.009-1.659-2.029-2.472-3.064c-0.033-0.043-0.068-0.085-0.103-0.128
		c-0.852-1.089-1.688-2.195-2.514-3.311c-0.232-0.313-0.459-0.633-0.688-0.948c-0.587-0.806-1.169-1.616-1.742-2.436
		c-0.272-0.389-0.542-0.78-0.811-1.172c-0.534-0.776-1.061-1.56-1.581-2.347c-0.259-0.391-0.518-0.781-0.773-1.175
		c-0.562-0.867-1.114-1.741-1.661-2.619c-0.19-0.307-0.385-0.61-0.573-0.918c-0.73-1.19-1.446-2.39-2.146-3.6
		c-0.101-0.175-0.197-0.352-0.298-0.526c-0.589-1.029-1.168-2.063-1.735-3.104c-0.217-0.398-0.428-0.8-0.642-1.2
		c-0.445-0.835-0.885-1.673-1.315-2.514c-0.226-0.442-0.449-0.885-0.671-1.328c-0.418-0.835-0.826-1.674-1.229-2.515
		c-0.201-0.422-0.405-0.842-0.604-1.265c-0.469-1.003-0.924-2.01-1.37-3.02c-0.111-0.252-0.229-0.503-0.339-0.756
		c-0.541-1.241-1.063-2.487-1.569-3.736c-0.355-0.878-0.689-1.759-1.027-2.639c-0.204-0.532-0.419-1.062-0.616-1.596
		c-0.364-0.983-0.705-1.969-1.046-2.955c-0.15-0.432-0.312-0.862-0.456-1.294c-0.476-1.416-0.928-2.833-1.355-4.251
		c-0.079-0.264-0.146-0.528-0.225-0.792c-0.342-1.159-0.676-2.318-0.983-3.477c-0.338-1.272-0.654-2.544-0.951-3.814
		c-0.08-0.341-0.15-0.682-0.227-1.023c-0.213-0.945-0.417-1.889-0.605-2.832c-0.087-0.432-0.168-0.864-0.25-1.296
		c-0.164-0.869-0.317-1.736-0.462-2.603c-0.071-0.433-0.144-0.866-0.21-1.297c-0.161-1.044-0.308-2.085-0.438-3.124
		c-0.023-0.189-0.053-0.38-0.075-0.569c-0.148-1.232-0.271-2.458-0.373-3.681c-0.026-0.315-0.046-0.629-0.069-0.944
		c-0.069-0.93-0.127-1.857-0.17-2.78c-0.017-0.362-0.033-0.723-0.046-1.084c-0.041-1.177-0.069-2.35-0.066-3.513
		c0.003-1.181,0.038-2.335,0.087-3.477c0.01-0.221,0.018-0.442,0.029-0.662c0.056-1.099,0.133-2.181,0.231-3.242
		c0.017-0.186,0.037-0.369,0.056-0.553c0.08-0.798,0.18-1.578,0.284-2.354c0.063-0.48,0.128-0.959,0.201-1.431
		c0.1-0.647,0.214-1.282,0.33-1.913c0.085-0.458,0.167-0.917,0.26-1.366c0.131-0.63,0.277-1.244,0.425-1.856
		c0.102-0.425,0.198-0.855,0.309-1.272c0.167-0.633,0.353-1.247,0.538-1.861c0.112-0.371,0.216-0.751,0.334-1.115
		c0.279-0.857,0.578-1.693,0.893-2.511c0.072-0.189,0.146-0.376,0.221-0.562c0.332-0.833,0.677-1.651,1.045-2.441
		c0.028-0.061,0.06-0.12,0.088-0.181c0.354-0.749,0.726-1.475,1.11-2.186c0.085-0.157,0.169-0.315,0.255-0.47
		c0.404-0.724,0.825-1.427,1.262-2.109c0.091-0.141,0.184-0.277,0.275-0.416c0.421-0.639,0.854-1.262,1.305-1.863
		c0.051-0.069,0.101-0.141,0.152-0.209c0.485-0.639,0.99-1.25,1.508-1.844c0.116-0.133,0.233-0.267,0.351-0.398
		c0.521-0.581,1.055-1.145,1.606-1.681c0.078-0.077,0.16-0.148,0.239-0.224c0.516-0.491,1.044-0.962,1.584-1.416
		c0.106-0.088,0.21-0.18,0.316-0.268c0.587-0.479,1.189-0.934,1.804-1.368c0.132-0.093,0.266-0.184,0.399-0.274
		c0.64-0.437,1.288-0.858,1.957-1.247c-1.409,0.819-2.819,1.639-4.229,2.458c-1.41,0.819-2.819,1.638-4.229,2.458
		c-0.669,0.389-1.319,0.811-1.96,1.249c-0.132,0.09-0.264,0.179-0.395,0.271c-0.616,0.435-1.221,0.891-1.81,1.372
		c-0.103,0.084-0.203,0.173-0.305,0.259c-0.548,0.458-1.083,0.936-1.604,1.434c-0.073,0.07-0.149,0.136-0.222,0.207
		c-0.557,0.541-1.094,1.109-1.618,1.694c-0.113,0.126-0.225,0.253-0.336,0.381c-0.522,0.599-1.032,1.215-1.521,1.86
		c-0.045,0.059-0.087,0.121-0.131,0.18c-0.46,0.613-0.902,1.249-1.332,1.901c-0.086,0.13-0.173,0.258-0.258,0.39
		c-0.441,0.688-0.865,1.398-1.273,2.128c-0.082,0.147-0.161,0.297-0.241,0.446c-0.393,0.724-0.772,1.462-1.132,2.226
		c-0.023,0.05-0.049,0.097-0.071,0.147c-0.372,0.797-0.719,1.622-1.054,2.462c-0.071,0.179-0.143,0.358-0.212,0.539
		c-0.295,0.768-0.581,1.547-0.845,2.349c-0.02,0.058-0.034,0.121-0.054,0.179c-0.114,0.354-0.215,0.723-0.323,1.083
		c-0.189,0.625-0.378,1.249-0.548,1.893c-0.109,0.413-0.205,0.84-0.306,1.261c-0.148,0.615-0.295,1.23-0.427,1.862
		c-0.094,0.453-0.177,0.917-0.262,1.378c-0.115,0.623-0.227,1.249-0.325,1.887c-0.076,0.488-0.143,0.984-0.209,1.481
		c-0.048,0.361-0.108,0.71-0.151,1.077c-0.047,0.398-0.083,0.805-0.124,1.208c-0.02,0.201-0.042,0.4-0.061,0.603
		c-0.099,1.056-0.175,2.132-0.23,3.226c-0.012,0.22-0.02,0.441-0.029,0.663c-0.049,1.142-0.084,2.296-0.087,3.477
		c-0.002,0.89,0.009,1.783,0.032,2.681c0.007,0.264,0.024,0.531,0.033,0.796c0.014,0.385,0.031,0.771,0.049,1.158
		c0.043,0.895,0.098,1.793,0.165,2.695c0.025,0.338,0.046,0.674,0.074,1.013c0.102,1.207,0.223,2.418,0.368,3.634
		c0.028,0.235,0.063,0.471,0.094,0.707c0.094,0.741,0.186,1.481,0.295,2.225c0.036,0.248,0.083,0.498,0.121,0.746
		c0.071,0.466,0.149,0.933,0.227,1.4c0.138,0.825,0.284,1.651,0.44,2.479c0.088,0.466,0.176,0.932,0.27,1.399
		c0.181,0.901,0.376,1.804,0.579,2.708c0.084,0.376,0.161,0.751,0.25,1.127c0.287,1.228,0.59,2.457,0.915,3.687
		c0.01,0.035,0.021,0.071,0.03,0.106c0.339,1.274,0.703,2.549,1.082,3.823c0.043,0.144,0.079,0.288,0.123,0.433
		c0.429,1.425,0.883,2.851,1.361,4.273c0.128,0.381,0.271,0.76,0.401,1.14c0.358,1.036,0.717,2.072,1.1,3.104
		c0.194,0.525,0.406,1.048,0.606,1.572c0.34,0.887,0.677,1.773,1.034,2.656c0.031,0.076,0.059,0.153,0.09,0.229
		c0.477,1.172,0.971,2.34,1.479,3.505c0.115,0.265,0.238,0.526,0.354,0.79c0.44,0.996,0.89,1.988,1.352,2.978
		c0.204,0.436,0.414,0.869,0.622,1.304c0.395,0.824,0.794,1.645,1.203,2.463c0.229,0.461,0.462,0.92,0.697,1.379
		c0.418,0.818,0.845,1.631,1.277,2.442c0.226,0.422,0.447,0.845,0.677,1.265c0.542,0.996,1.096,1.984,1.659,2.969
		c0.126,0.22,0.247,0.442,0.374,0.662c0.69,1.195,1.398,2.381,2.12,3.558c0.21,0.343,0.427,0.68,0.639,1.021
		c0.523,0.842,1.053,1.68,1.591,2.51c0.271,0.418,0.547,0.833,0.821,1.248c0.503,0.76,1.011,1.514,1.525,2.264
		c0.284,0.414,0.569,0.828,0.856,1.239c0.553,0.788,1.113,1.568,1.678,2.345c0.25,0.343,0.496,0.689,0.749,1.03
		c0.816,1.104,1.644,2.196,2.485,3.273c0.075,0.096,0.153,0.188,0.229,0.285c0.771,0.98,1.552,1.949,2.343,2.906
		c0.283,0.342,0.57,0.677,0.855,1.016c0.597,0.709,1.197,1.413,1.806,2.108c0.324,0.372,0.651,0.74,0.979,1.107
		c0.599,0.67,1.202,1.332,1.81,1.987c0.318,0.344,0.636,0.688,0.957,1.028c0.154,0.163,0.305,0.332,0.46,0.494
		c0.349,0.365,0.707,0.713,1.059,1.072c0.54,0.553,1.079,1.106,1.626,1.647c0.494,0.489,0.994,0.966,1.494,1.445
		c0.549,0.526,1.098,1.053,1.653,1.566c0.511,0.473,1.027,0.935,1.544,1.396c0.555,0.496,1.109,0.991,1.67,1.475
		c0.526,0.455,1.059,0.898,1.59,1.342c0.561,0.467,1.122,0.932,1.688,1.385c0.21,0.169,0.416,0.348,0.627,0.515
		c0.461,0.364,0.928,0.711,1.392,1.065c0.299,0.229,0.596,0.462,0.896,0.688c1.018,0.762,2.041,1.507,3.073,2.224
		c0.014,0.01,0.027,0.018,0.041,0.027c1.013,0.702,2.033,1.377,3.06,2.034c0.32,0.206,0.644,0.401,0.966,0.603
		c0.462,0.288,0.921,0.586,1.385,0.864c0.455,0.273,0.912,0.543,1.37,0.807c0.678,0.392,1.353,0.766,2.026,1.132
		c0.208,0.112,0.414,0.221,0.622,0.331c0.479,0.256,0.958,0.505,1.435,0.747c0.221,0.112,0.44,0.224,0.66,0.333
		c0.521,0.259,1.04,0.509,1.558,0.752c0.149,0.07,0.3,0.144,0.449,0.213c0.654,0.302,1.306,0.591,1.953,0.868
		c0.044,0.019,0.089,0.04,0.133,0.059c0.096,0.041,0.189,0.074,0.284,0.114c0.675,0.283,1.346,0.553,2.014,0.81
		c0.15,0.058,0.303,0.117,0.453,0.174c0.752,0.283,1.499,0.549,2.242,0.798c0.146,0.048,0.29,0.094,0.436,0.142
		c0.677,0.221,1.35,0.429,2.02,0.622c0.104,0.03,0.21,0.063,0.314,0.093c0.738,0.209,1.472,0.398,2.199,0.573
		c0.066,0.016,0.133,0.036,0.198,0.052c0.072,0.017,0.142,0.027,0.214,0.044c0.865,0.201,1.724,0.381,2.573,0.534
		c0.1,0.019,0.198,0.033,0.297,0.051c0.879,0.153,1.75,0.285,2.61,0.389c0.041,0.004,0.082,0.008,0.123,0.013
		c0.867,0.101,1.726,0.176,2.575,0.227c0.049,0.003,0.099,0.008,0.148,0.011c0.831,0.046,1.65,0.063,2.463,0.062
		c0.067,0,0.137,0.006,0.204,0.005c0.041,0,0.082-0.004,0.123-0.005c0.694-0.007,1.381-0.032,2.061-0.074
		c0.142-0.009,0.282-0.02,0.424-0.029C225.91,333.333,226.595,333.271,227.27,333.185z"/>
	<g>
		<polygon fill="#1A8F2E" points="3.483,5.732 3.489,5.729 3.478,5.734 		"/>
		<path fill="#1A8F2E" d="M392.979,227.75c0-0.108-0.001-0.218-0.004-0.327c-0.003-0.115-0.024-0.237-0.031-0.354
			c-0.017-0.302-0.041-0.606-0.081-0.916c-0.011-0.082-0.01-0.16-0.021-0.243c-0.029-0.197-0.068-0.396-0.105-0.595
			c-0.012-0.062-0.021-0.122-0.033-0.184c-0.064-0.321-0.138-0.644-0.225-0.971c-0.016-0.059-0.038-0.119-0.054-0.178
			c-0.046-0.164-0.099-0.328-0.149-0.492c-0.081-0.266-0.166-0.532-0.262-0.8c-0.062-0.178-0.131-0.357-0.2-0.536
			c-0.053-0.138-0.098-0.275-0.154-0.413c-0.053-0.128-0.114-0.257-0.17-0.385c-0.068-0.16-0.138-0.32-0.212-0.48
			c-0.131-0.289-0.272-0.577-0.418-0.866c-0.071-0.142-0.14-0.284-0.215-0.425c-0.207-0.393-0.426-0.784-0.656-1.175
			c-0.021-0.034-0.038-0.069-0.059-0.103c-0.255-0.426-0.526-0.849-0.809-1.27c-0.083-0.125-0.173-0.248-0.259-0.372
			c-0.205-0.296-0.414-0.591-0.632-0.883c-0.108-0.146-0.221-0.29-0.332-0.435c-0.21-0.271-0.426-0.541-0.646-0.808
			c-0.116-0.141-0.233-0.282-0.353-0.421c-0.242-0.284-0.492-0.562-0.746-0.838c-0.103-0.112-0.202-0.225-0.307-0.335
			c-0.04-0.042-0.076-0.085-0.116-0.127c-0.098-0.102-0.204-0.195-0.303-0.296c-0.331-0.337-0.668-0.668-1.016-0.991
			c-0.165-0.154-0.333-0.304-0.502-0.455c-0.333-0.296-0.673-0.583-1.019-0.865c-0.111-0.091-0.217-0.191-0.33-0.281
			c-0.071-0.057-0.147-0.107-0.22-0.163c-0.232-0.18-0.471-0.352-0.708-0.524c-0.229-0.166-0.455-0.332-0.688-0.49
			c-0.243-0.166-0.49-0.32-0.738-0.477c-0.175-0.111-0.345-0.231-0.521-0.337c-0.124-0.074-0.249-0.148-0.374-0.22L23.777,2.452
			c-0.531-0.307-1.055-0.574-1.576-0.824c-0.14-0.067-0.279-0.13-0.418-0.194c-0.155-0.071-0.313-0.151-0.468-0.217
			c-0.214-0.091-0.422-0.159-0.633-0.24c-0.189-0.073-0.378-0.149-0.565-0.214c-0.384-0.134-0.761-0.245-1.134-0.346
			c-0.132-0.036-0.268-0.082-0.398-0.114c-0.029-0.007-0.059-0.018-0.088-0.025c-0.298-0.071-0.582-0.107-0.871-0.157
			C17.432,0.088,17.23,0.04,17.04,0.016c-0.344-0.043-0.671,0.016-0.999,0.004c-0.147-0.005-0.302,0.042-0.446,0.042
			c-0.006,0-0.014,0-0.02,0c-0.416,0-0.811-0.03-1.195,0.024c-0.112,0.016-0.219,0.004-0.329,0.024
			c-0.286,0.052-0.562,0.102-0.827,0.184c-0.105,0.032-0.21,0.054-0.312,0.09c-0.344,0.125-0.675,0.262-0.978,0.438
			C9.12,2.459,6.305,4.093,3.489,5.729c0.3-0.174,0.628-0.315,0.968-0.438c0.1-0.036,0.205-0.066,0.308-0.098
			c0.266-0.082,0.543-0.149,0.83-0.202c0.109-0.02,0.216-0.043,0.328-0.059c0.391-0.055,0.793-0.09,1.216-0.093
			c0.143,0,0.299,0.021,0.446,0.026c0.328,0.012,0.655,0.022,0.999,0.065c0.19,0.024,0.392,0.072,0.586,0.106
			C9.486,5.091,9.8,5.139,10.128,5.218c0.13,0.032,0.266,0.078,0.398,0.114c0.373,0.101,0.75,0.212,1.134,0.346
			c0.186,0.064,0.376,0.142,0.565,0.214c0.363,0.14,0.729,0.288,1.101,0.457c0.139,0.063,0.278,0.126,0.418,0.194
			c0.52,0.25,1.044,0.518,1.576,0.824l355.536,205.269c0.295,0.17,0.581,0.358,0.87,0.541c0.259,0.164,0.519,0.327,0.773,0.5
			c0.22,0.15,0.436,0.308,0.651,0.465c0.251,0.181,0.501,0.362,0.746,0.552c0.177,0.137,0.349,0.281,0.523,0.422
			c0.352,0.286,0.697,0.579,1.036,0.88c0.167,0.148,0.333,0.297,0.497,0.449c0.355,0.332,0.702,0.672,1.042,1.019
			c0.127,0.129,0.258,0.254,0.382,0.385c0.119,0.126,0.233,0.255,0.35,0.382c0.239,0.261,0.477,0.524,0.706,0.792
			c0.127,0.148,0.25,0.297,0.374,0.447c0.213,0.257,0.42,0.518,0.623,0.78c0.118,0.152,0.236,0.305,0.352,0.458
			c0.209,0.282,0.411,0.566,0.609,0.852c0.092,0.133,0.188,0.265,0.277,0.399c0.279,0.417,0.549,0.837,0.801,1.259
			c0.029,0.048,0.055,0.097,0.083,0.145c0.222,0.377,0.435,0.755,0.634,1.134c0.076,0.144,0.146,0.289,0.219,0.433
			c0.145,0.288,0.286,0.576,0.418,0.864c0.071,0.157,0.14,0.314,0.207,0.471c0.117,0.271,0.226,0.541,0.329,0.81
			c0.068,0.177,0.136,0.354,0.198,0.53c0.094,0.265,0.178,0.529,0.259,0.792c0.052,0.169,0.106,0.338,0.153,0.506
			c0.105,0.383,0.2,0.763,0.275,1.139c0.014,0.067,0.023,0.133,0.036,0.2c0.052,0.278,0.09,0.551,0.125,0.823
			c0.04,0.312,0.064,0.618,0.081,0.921c0.013,0.227,0.036,0.457,0.035,0.679l-0.713,251.487c-0.001,0.366-0.023,0.714-0.061,1.052
			c-0.028,0.255-0.066,0.501-0.115,0.739c-0.006,0.032-0.009,0.067-0.016,0.099c-0.058,0.267-0.129,0.521-0.211,0.765
			c-0.103,0.307-0.226,0.595-0.365,0.866c-0.035,0.068-0.077,0.129-0.114,0.194c-0.113,0.199-0.234,0.389-0.367,0.566
			c-0.059,0.078-0.119,0.152-0.182,0.227c-0.133,0.158-0.275,0.307-0.426,0.446c-0.063,0.06-0.125,0.122-0.192,0.178
			c-0.22,0.185-0.451,0.355-0.703,0.502c2.818-1.639,5.638-3.276,8.457-4.915c0.251-0.146,0.482-0.317,0.703-0.501
			c0.067-0.057,0.13-0.12,0.194-0.181c0.148-0.139,0.29-0.285,0.422-0.442c0.063-0.075,0.126-0.151,0.187-0.231
			c0.129-0.174,0.247-0.359,0.357-0.553c0.041-0.07,0.086-0.136,0.123-0.209c0.139-0.269,0.26-0.554,0.362-0.857
			c0.005-0.014,0.012-0.025,0.017-0.04c0.076-0.233,0.142-0.477,0.195-0.729c0.008-0.033,0.011-0.069,0.018-0.103
			c0.043-0.216,0.083-0.437,0.109-0.667c0.002-0.021,0.002-0.043,0.004-0.062c0.037-0.339,0.061-0.689,0.062-1.058L392.979,227.75z"
			/>
	</g>
	<g>
		<path fill="#F0F0F0" d="M44.016,33.731c1.954,1.128,3.539,3.873,3.532,6.125l-0.028,9.78c-0.006,2.252-1.602,3.161-3.555,2.033
			L17.003,36.102c-1.954-1.128-3.538-3.873-3.532-6.125l0.028-9.779c0.006-2.252,1.602-3.161,3.555-2.033L44.016,33.731z"/>
	</g>
	<g>
		<path fill="#F0F0F0" d="M367.502,220.496c1.959,1.131,3.544,3.876,3.538,6.128l-0.028,9.779c-0.006,2.252-1.602,3.161-3.562,2.03
			L56.735,59.041c-1.96-1.131-3.545-3.876-3.539-6.128l0.028-9.779c0.006-2.253,1.602-3.161,3.562-2.03L367.502,220.496z"/>
	</g>
	<path fill="#2BF04E" d="M370.855,212.636c7.764,4.482,13.686,13.448,13.666,20.029l-0.713,251.487
		c-0.019,6.581-5.971,8.493-13.734,4.011L14.538,282.895c-7.764-4.482-14.536-13.742-14.517-20.322L0.734,11.085
		c0.019-6.581,6.822-8.201,14.585-3.718L370.855,212.636z M192.409,324.346c36.827,21.263,66.778,4.194,66.898-38.123
		s-29.637-93.866-66.464-115.128s-66.785-4.189-66.905,38.127C125.818,251.54,155.582,303.084,192.409,324.346 M371.012,236.403
		l0.027-9.779c0.007-2.253-1.578-4.997-3.538-6.129L56.785,41.103c-1.96-1.132-3.555-0.224-3.561,2.03l-0.028,9.779
		c-0.006,2.252,1.578,4.996,3.538,6.128L367.45,238.432C369.41,239.563,371.005,238.656,371.012,236.403 M47.521,49.635l0.028-9.779
		c0.006-2.253-1.579-4.998-3.532-6.125L17.054,18.164c-1.954-1.128-3.549-0.22-3.556,2.034l-0.027,9.779
		c-0.006,2.253,1.578,4.997,3.532,6.125l26.962,15.566C45.919,52.795,47.514,51.888,47.521,49.635"/>
</g>
<g id="Logo">
	<g>
		<path fill="#858585" d="M139.636,303.541c0.111-0.422,0.209-0.858,0.312-1.289c0.146-0.605,0.291-1.211,0.42-1.833
			c0.096-0.461,0.18-0.934,0.267-1.404c0.113-0.614,0.224-1.231,0.321-1.861c0.076-0.491,0.144-0.991,0.21-1.492
			c0.048-0.36,0.108-0.708,0.151-1.073c0.047-0.397,0.083-0.805,0.123-1.208c0.021-0.202,0.043-0.402,0.062-0.605
			c0.097-1.052,0.173-2.122,0.229-3.21c0.012-0.231,0.021-0.465,0.03-0.698c0.049-1.135,0.083-2.282,0.087-3.456
			c0.002-0.891-0.009-1.785-0.032-2.684c-0.007-0.265-0.024-0.531-0.033-0.796c-0.014-0.383-0.031-0.767-0.049-1.15
			c-0.042-0.903-0.099-1.809-0.166-2.718c-0.024-0.329-0.045-0.657-0.072-0.987c-0.103-1.214-0.224-2.433-0.37-3.657
			c-0.025-0.209-0.058-0.419-0.084-0.627c-0.096-0.764-0.191-1.527-0.304-2.294c-0.037-0.253-0.085-0.508-0.124-0.762
			c-0.069-0.453-0.146-0.907-0.221-1.362c-0.139-0.834-0.287-1.669-0.444-2.505c-0.088-0.464-0.175-0.927-0.268-1.392
			c-0.181-0.897-0.375-1.797-0.577-2.697c-0.085-0.381-0.164-0.762-0.254-1.143c-0.287-1.229-0.59-2.459-0.916-3.689
			c-0.008-0.03-0.018-0.061-0.025-0.091c-0.338-1.271-0.701-2.542-1.079-3.812c-0.045-0.153-0.084-0.308-0.131-0.461
			c-0.428-1.421-0.881-2.841-1.356-4.259c-0.151-0.449-0.318-0.896-0.475-1.346c-0.335-0.967-0.669-1.934-1.025-2.897
			c-0.211-0.567-0.438-1.132-0.656-1.698c-0.324-0.843-0.644-1.687-0.983-2.526c-0.033-0.082-0.063-0.165-0.097-0.248
			c-0.478-1.175-0.973-2.345-1.482-3.512c-0.101-0.231-0.209-0.462-0.311-0.694c-0.454-1.025-0.917-2.049-1.394-3.068
			c-0.199-0.428-0.405-0.852-0.608-1.276c-0.398-0.833-0.803-1.662-1.216-2.489c-0.227-0.455-0.456-0.908-0.688-1.36
			c-0.422-0.825-0.854-1.646-1.29-2.464c-0.222-0.417-0.44-0.834-0.666-1.248c-0.543-0.996-1.099-1.986-1.662-2.973
			c-0.126-0.219-0.246-0.441-0.373-0.661c-0.691-1.196-1.4-2.382-2.121-3.56c-0.209-0.34-0.424-0.676-0.635-1.014
			c-0.524-0.842-1.054-1.682-1.594-2.514c-0.271-0.42-0.548-0.836-0.824-1.252c-0.5-0.757-1.006-1.508-1.519-2.256
			c-0.286-0.416-0.572-0.832-0.862-1.246c-0.55-0.785-1.108-1.563-1.672-2.337c-0.251-0.346-0.499-0.694-0.753-1.036
			c-0.816-1.104-1.643-2.195-2.483-3.271c-0.077-0.098-0.156-0.192-0.233-0.29c-0.769-0.979-1.548-1.944-2.336-2.898
			c-0.285-0.345-0.574-0.683-0.861-1.023c-0.596-0.707-1.194-1.409-1.8-2.102c-0.326-0.373-0.654-0.743-0.983-1.111
			c-0.596-0.667-1.196-1.327-1.802-1.979c-0.321-0.347-0.641-0.693-0.965-1.036c-0.152-0.161-0.302-0.329-0.455-0.489
			c-0.348-0.363-0.705-0.71-1.055-1.068c-0.542-0.555-1.082-1.11-1.631-1.652c-0.493-0.488-0.991-0.964-1.49-1.441
			c-0.552-0.53-1.104-1.059-1.663-1.576c-0.503-0.466-1.012-0.92-1.52-1.375c-0.564-0.506-1.13-1.01-1.701-1.502
			c-0.514-0.443-1.032-0.877-1.552-1.309c-0.574-0.479-1.149-0.955-1.73-1.421c-0.204-0.163-0.403-0.338-0.608-0.499
			c-0.45-0.356-0.907-0.695-1.36-1.043c-0.313-0.24-0.625-0.484-0.94-0.72c-1.012-0.758-2.03-1.499-3.057-2.212
			c-0.032-0.023-0.064-0.043-0.097-0.065c-0.994-0.688-1.996-1.352-3.003-1.997c-0.328-0.21-0.658-0.41-0.987-0.615
			c-0.456-0.285-0.91-0.578-1.368-0.854c-0.456-0.274-0.913-0.544-1.372-0.809c-0.677-0.391-1.35-0.764-2.021-1.129
			c-0.213-0.115-0.424-0.227-0.637-0.34c-0.473-0.252-0.944-0.497-1.414-0.736c-0.227-0.115-0.453-0.229-0.679-0.342
			c-0.513-0.254-1.023-0.5-1.532-0.739c-0.157-0.073-0.314-0.151-0.47-0.223c-0.655-0.302-1.307-0.591-1.955-0.868
			c-0.042-0.019-0.085-0.039-0.127-0.057c-0.092-0.039-0.183-0.072-0.274-0.11c-0.675-0.284-1.347-0.554-2.016-0.81
			c-0.156-0.061-0.312-0.123-0.469-0.182c-0.747-0.28-1.489-0.544-2.228-0.791c-0.153-0.052-0.307-0.1-0.459-0.15
			c-0.663-0.216-1.322-0.42-1.978-0.609c-0.117-0.033-0.235-0.07-0.352-0.104c-0.729-0.206-1.451-0.393-2.17-0.565
			c-0.072-0.018-0.146-0.04-0.217-0.057c-0.079-0.019-0.156-0.03-0.235-0.049c-0.854-0.198-1.704-0.376-2.544-0.528
			c-0.107-0.02-0.213-0.035-0.32-0.054c-0.873-0.151-1.739-0.284-2.596-0.386c-0.042-0.005-0.083-0.008-0.125-0.014
			c-0.869-0.101-1.729-0.176-2.579-0.227c-0.047-0.003-0.095-0.008-0.141-0.01c-0.835-0.047-1.659-0.064-2.475-0.062
			c-0.064,0-0.131-0.006-0.195-0.006c-0.04,0.001-0.078,0.004-0.118,0.005c-0.698,0.007-1.389,0.033-2.073,0.075
			c-0.137,0.009-0.272,0.019-0.408,0.028c-0.694,0.05-1.383,0.114-2.062,0.2c-0.045,0.006-0.089,0.014-0.134,0.02
			c-0.652,0.086-1.296,0.191-1.934,0.311c-0.116,0.021-0.232,0.041-0.347,0.064c-0.645,0.127-1.279,0.271-1.907,0.434
			c-0.126,0.031-0.251,0.066-0.377,0.1c-0.641,0.173-1.276,0.357-1.899,0.565c-0.023,0.008-0.047,0.017-0.069,0.024
			c-0.609,0.205-1.208,0.432-1.8,0.67c-0.111,0.045-0.225,0.088-0.336,0.135c-0.584,0.242-1.159,0.502-1.726,0.778
			c-0.112,0.055-0.223,0.111-0.334,0.167c-0.583,0.293-1.16,0.597-1.724,0.924c-2.819,1.639-5.639,3.277-8.457,4.915
			c0.006-0.003,0.012-0.007,0.018-0.01l-0.018,0.011c0.567-0.33,1.148-0.637,1.736-0.932c0.104-0.053,0.207-0.105,0.312-0.156
			c0.571-0.278,1.152-0.541,1.742-0.786c0.104-0.044,0.211-0.085,0.316-0.127c0.602-0.243,1.209-0.472,1.828-0.68
			c0.016-0.005,0.031-0.012,0.047-0.017c0.628-0.21,1.268-0.396,1.913-0.569c0.121-0.032,0.241-0.065,0.363-0.097
			c0.63-0.162,1.269-0.308,1.915-0.436c0.112-0.021,0.226-0.041,0.338-0.062c0.642-0.119,1.289-0.227,1.945-0.312
			c0.042-0.006,0.084-0.013,0.127-0.018c0.68-0.088,1.37-0.15,2.065-0.201c0.134-0.01,0.269-0.02,0.403-0.028
			c0.686-0.042,1.378-0.075,2.078-0.075c0.102,0,0.205,0,0.307,0c0.816,0,1.641,0.016,2.477,0.062
			c0.049,0.003,0.1,0.008,0.148,0.012c0.847,0.05,1.703,0.124,2.568,0.226c0.044,0.005,0.088,0.009,0.133,0.013
			c0.854,0.104,1.72,0.234,2.592,0.386c0.107,0.019,0.214,0.035,0.322,0.055c0.842,0.152,1.692,0.331,2.55,0.53
			c0.146,0.033,0.292,0.066,0.438,0.102c0.723,0.174,1.45,0.361,2.183,0.568c0.11,0.031,0.221,0.066,0.331,0.099
			c0.663,0.192,1.331,0.397,2.002,0.616c0.148,0.049,0.296,0.096,0.444,0.145c0.741,0.249,1.488,0.514,2.239,0.797
			c0.149,0.056,0.301,0.115,0.451,0.174c0.682,0.262,1.365,0.536,2.054,0.826c0.12,0.05,0.24,0.098,0.36,0.148
			c0.658,0.281,1.319,0.574,1.982,0.881c0.134,0.062,0.268,0.128,0.401,0.19c0.534,0.251,1.069,0.509,1.607,0.776
			c0.211,0.104,0.423,0.211,0.634,0.318c0.486,0.248,0.975,0.502,1.464,0.763c0.2,0.106,0.4,0.211,0.601,0.32
			c0.676,0.366,1.353,0.742,2.033,1.135c0.909,0.524,1.811,1.083,2.711,1.644c0.343,0.214,0.687,0.423,1.027,0.642
			c0.989,0.634,1.974,1.286,2.95,1.962c0.048,0.032,0.096,0.062,0.143,0.096c1.026,0.713,2.043,1.453,3.055,2.21
			c0.312,0.233,0.621,0.476,0.932,0.714c0.663,0.508,1.323,1.024,1.98,1.551c0.575,0.461,1.146,0.934,1.716,1.409
			c0.524,0.437,1.049,0.874,1.568,1.322c0.563,0.485,1.12,0.983,1.678,1.481c0.517,0.463,1.033,0.924,1.544,1.397
			c0.551,0.51,1.096,1.032,1.641,1.554c0.504,0.483,1.01,0.966,1.509,1.46c0.545,0.54,1.083,1.092,1.622,1.644
			c0.506,0.518,1.014,1.033,1.514,1.562c0.323,0.342,0.644,0.689,0.964,1.035c0.607,0.654,1.21,1.315,1.808,1.984
			c0.325,0.365,0.65,0.732,0.974,1.102c0.611,0.699,1.216,1.408,1.817,2.121c0.281,0.335,0.564,0.666,0.844,1.004
			c0.808,0.978,1.607,1.967,2.395,2.97c0.058,0.073,0.116,0.144,0.173,0.216c0.848,1.084,1.679,2.183,2.5,3.293
			c0.241,0.324,0.476,0.654,0.714,0.982c0.578,0.793,1.151,1.592,1.716,2.398c0.278,0.396,0.553,0.797,0.827,1.196
			c0.526,0.767,1.047,1.539,1.561,2.315c0.265,0.4,0.529,0.799,0.79,1.201c0.557,0.857,1.103,1.723,1.644,2.592
			c0.195,0.313,0.395,0.625,0.588,0.939c0.728,1.188,1.442,2.385,2.14,3.592c0.106,0.183,0.207,0.369,0.312,0.552
			c0.585,1.021,1.16,2.048,1.724,3.081c0.217,0.398,0.427,0.8,0.641,1.199c0.446,0.837,0.887,1.676,1.317,2.519
			c0.225,0.438,0.446,0.879,0.667,1.319c0.421,0.841,0.832,1.686,1.236,2.532c0.198,0.415,0.399,0.829,0.594,1.245
			c0.48,1.027,0.947,2.058,1.403,3.092c0.101,0.227,0.206,0.451,0.305,0.678c0.544,1.248,1.069,2.502,1.578,3.758
			c0.345,0.854,0.669,1.709,0.998,2.564c0.213,0.554,0.436,1.105,0.641,1.66c0.358,0.968,0.693,1.938,1.03,2.909
			c0.154,0.446,0.321,0.892,0.472,1.339c0.476,1.414,0.927,2.831,1.354,4.248c0.088,0.291,0.163,0.583,0.249,0.874
			c0.331,1.128,0.657,2.255,0.957,3.382c0.34,1.281,0.658,2.562,0.957,3.841c0.078,0.333,0.146,0.665,0.222,0.998
			c0.213,0.949,0.418,1.897,0.607,2.845c0.088,0.438,0.17,0.875,0.253,1.312c0.162,0.857,0.314,1.714,0.456,2.569
			c0.074,0.445,0.148,0.892,0.217,1.336c0.157,1.022,0.3,2.041,0.428,3.058c0.026,0.21,0.059,0.421,0.084,0.631
			c0.146,1.226,0.269,2.446,0.371,3.662c0.026,0.321,0.046,0.64,0.07,0.96c0.069,0.928,0.126,1.852,0.169,2.772
			c0.017,0.36,0.033,0.722,0.046,1.082c0.041,1.177,0.069,2.351,0.066,3.515c-0.003,1.181-0.038,2.336-0.087,3.478
			c-0.01,0.221-0.018,0.442-0.029,0.661c-0.057,1.1-0.133,2.181-0.23,3.242c-0.018,0.187-0.039,0.37-0.057,0.556
			c-0.08,0.797-0.18,1.576-0.283,2.353c-0.064,0.479-0.129,0.96-0.202,1.432c-0.101,0.647-0.214,1.283-0.331,1.915
			c-0.084,0.456-0.165,0.915-0.258,1.362c-0.132,0.635-0.28,1.253-0.429,1.871c-0.101,0.419-0.195,0.843-0.304,1.254
			c-0.171,0.646-0.36,1.272-0.55,1.898c-0.108,0.358-0.208,0.726-0.322,1.077c-0.28,0.863-0.581,1.705-0.898,2.528
			c-0.069,0.182-0.141,0.36-0.212,0.54c-0.334,0.84-0.682,1.664-1.053,2.461c-0.023,0.05-0.049,0.098-0.072,0.147
			c-0.359,0.764-0.738,1.502-1.131,2.225c-0.08,0.149-0.16,0.301-0.242,0.448c-0.407,0.729-0.831,1.438-1.272,2.126
			c-0.085,0.134-0.174,0.263-0.26,0.395c-0.428,0.649-0.868,1.282-1.325,1.893c-0.047,0.062-0.091,0.127-0.138,0.188
			c-0.488,0.643-0.997,1.258-1.518,1.855c-0.112,0.13-0.226,0.259-0.34,0.386c-0.523,0.584-1.06,1.15-1.614,1.69
			c-0.075,0.072-0.152,0.141-0.228,0.213c-0.52,0.496-1.054,0.972-1.599,1.429c-0.104,0.086-0.204,0.175-0.308,0.26
			c-0.589,0.48-1.192,0.937-1.81,1.372c-0.13,0.092-0.263,0.181-0.395,0.271c-0.64,0.438-1.29,0.859-1.959,1.248
			c2.819-1.638,5.638-3.276,8.457-4.914c0.669-0.389,1.317-0.811,1.957-1.247c0.134-0.091,0.267-0.181,0.398-0.274
			c0.615-0.434,1.218-0.889,1.805-1.368c0.106-0.087,0.21-0.179,0.314-0.267c0.543-0.454,1.073-0.927,1.59-1.42
			c0.077-0.074,0.157-0.145,0.234-0.219c0.553-0.538,1.087-1.103,1.609-1.686c0.116-0.13,0.231-0.262,0.347-0.394
			c0.519-0.596,1.024-1.207,1.511-1.848c0.051-0.067,0.1-0.139,0.15-0.206c0.451-0.603,0.886-1.228,1.308-1.868
			c0.091-0.138,0.184-0.272,0.272-0.411c0.438-0.683,0.858-1.387,1.263-2.111c0.087-0.155,0.17-0.314,0.256-0.472
			c0.384-0.709,0.756-1.433,1.107-2.181c0.029-0.062,0.062-0.122,0.091-0.186c0.367-0.788,0.711-1.604,1.042-2.435
			c0.075-0.19,0.151-0.381,0.226-0.573c0.293-0.763,0.576-1.535,0.838-2.332c0.018-0.055,0.032-0.113,0.051-0.169
			c0.121-0.372,0.227-0.762,0.342-1.142C139.287,304.772,139.471,304.166,139.636,303.541z"/>
		<g>
			<path fill="#F0F0F0" d="M66.927,175.204c36.826,21.263,66.584,72.804,66.464,115.121c-0.12,42.316-30.071,59.393-66.898,38.13
				C29.665,307.193-0.099,255.64,0.021,213.324S30.1,153.942,66.927,175.204z"/>
		</g>
	</g>
</g>
</svg>
